<svg xmlns="http://www.w3.org/2000/svg" width="375" viewBox="0 0 375 375" height="375" version="1.0"><defs><clipPath id="a"><path d="M 121.34375 72.839844 L 269 72.839844 L 269 262.589844 L 121.34375 262.589844 Z M 121.34375 72.839844"/></clipPath></defs><path fill="#DDEFEF" d="M 204.710938 167.738281 C 204.710938 162.496094 200.457031 158.246094 195.210938 158.246094 C 189.96875 158.246094 185.714844 162.496094 185.714844 167.738281 C 185.714844 172.980469 189.96875 177.230469 195.210938 177.230469 C 200.457031 177.230469 204.710938 172.980469 204.710938 167.738281"/><g clip-path="url(#a)"><path fill="#DDEFEF" d="M 207.804688 72.855469 L 182.621094 72.855469 L 121.425781 262.621094 L 139.605469 262.621094 L 195.210938 90.183594 L 230.4375 199.414062 L 175.457031 199.414062 L 175.457031 216.707031 L 236.011719 216.707031 L 245.242188 245.328125 L 175.457031 245.328125 L 175.457031 262.621094 L 269 262.621094 L 207.804688 72.855469"/></g><g fill="#A4C2C2"><g><g><path d="M 11.859375 -4.4375 L 5.84375 -4.4375 L 4.75 0 L -0.328125 0 L 5.953125 -20.546875 L 11.859375 -20.546875 L 18.140625 0 L 12.9375 0 Z M 6.609375 -7.953125 L 11.0625 -7.953125 L 8.828125 -17.046875 Z M 6.609375 -7.953125" transform="translate(88.448 303.05)"/></g></g></g><g fill="#A4C2C2"><g><g><path d="M 11.921875 -6.203125 C 11.921875 -6.929688 11.78125 -7.503906 11.5 -7.921875 C 11.21875 -8.335938 10.820312 -8.632812 10.3125 -8.8125 C 9.800781 -8.988281 9.203125 -9.078125 8.515625 -9.078125 L 6.515625 -9.078125 L 6.515625 -3.546875 L 8.3125 -3.546875 C 8.789062 -3.546875 9.242188 -3.578125 9.671875 -3.640625 C 10.097656 -3.710938 10.484375 -3.84375 10.828125 -4.03125 C 11.171875 -4.21875 11.4375 -4.484375 11.625 -4.828125 C 11.820312 -5.179688 11.921875 -5.640625 11.921875 -6.203125 Z M 11.140625 -14.8125 C 11.140625 -15.613281 10.882812 -16.195312 10.375 -16.5625 C 9.875 -16.925781 9.085938 -17.109375 8.015625 -17.109375 L 6.515625 -17.109375 L 6.515625 -12.34375 L 8.171875 -12.34375 C 9.210938 -12.34375 9.96875 -12.535156 10.4375 -12.921875 C 10.90625 -13.304688 11.140625 -13.9375 11.140625 -14.8125 Z M 16.921875 -6.015625 C 16.921875 -4.828125 16.691406 -3.84375 16.234375 -3.0625 C 15.785156 -2.28125 15.164062 -1.664062 14.375 -1.21875 C 13.582031 -0.78125 12.679688 -0.46875 11.671875 -0.28125 C 10.660156 -0.09375 9.597656 0 8.484375 0 L 1.65625 0 L 1.65625 -20.546875 L 8.171875 -20.546875 C 9.222656 -20.546875 10.21875 -20.457031 11.15625 -20.28125 C 12.101562 -20.101562 12.941406 -19.816406 13.671875 -19.421875 C 14.410156 -19.023438 14.988281 -18.488281 15.40625 -17.8125 C 15.820312 -17.132812 16.03125 -16.296875 16.03125 -15.296875 C 16.03125 -14.472656 15.859375 -13.757812 15.515625 -13.15625 C 15.171875 -12.5625 14.710938 -12.070312 14.140625 -11.6875 C 13.566406 -11.3125 12.941406 -11.039062 12.265625 -10.875 C 13.003906 -10.757812 13.726562 -10.53125 14.4375 -10.1875 C 15.15625 -9.84375 15.75 -9.332031 16.21875 -8.65625 C 16.6875 -7.988281 16.921875 -7.109375 16.921875 -6.015625 Z M 16.921875 -6.015625" transform="translate(106.23 303.05)"/></g></g></g><g fill="#A4C2C2"><g><g><path d="M 16.828125 -6 C 16.828125 -4.726562 16.492188 -3.601562 15.828125 -2.625 C 15.160156 -1.644531 14.203125 -0.878906 12.953125 -0.328125 C 11.710938 0.222656 10.222656 0.5 8.484375 0.5 C 6.546875 0.5 4.921875 0.21875 3.609375 -0.34375 C 2.296875 -0.914062 1.210938 -1.617188 0.359375 -2.453125 L 2.8125 -5.1875 C 3.570312 -4.519531 4.410156 -4.003906 5.328125 -3.640625 C 6.253906 -3.285156 7.265625 -3.109375 8.359375 -3.109375 C 9.035156 -3.109375 9.628906 -3.207031 10.140625 -3.40625 C 10.660156 -3.601562 11.0625 -3.890625 11.34375 -4.265625 C 11.632812 -4.640625 11.78125 -5.09375 11.78125 -5.625 C 11.78125 -6.132812 11.664062 -6.5625 11.4375 -6.90625 C 11.207031 -7.25 10.820312 -7.554688 10.28125 -7.828125 C 9.75 -8.109375 9.003906 -8.394531 8.046875 -8.6875 C 6.441406 -9.175781 5.15625 -9.71875 4.1875 -10.3125 C 3.21875 -10.90625 2.507812 -11.59375 2.0625 -12.375 C 1.625 -13.15625 1.40625 -14.066406 1.40625 -15.109375 C 1.40625 -16.359375 1.753906 -17.425781 2.453125 -18.3125 C 3.148438 -19.207031 4.085938 -19.890625 5.265625 -20.359375 C 6.441406 -20.828125 7.734375 -21.0625 9.140625 -21.0625 C 10.734375 -21.0625 12.132812 -20.832031 13.34375 -20.375 C 14.5625 -19.914062 15.617188 -19.257812 16.515625 -18.40625 L 14.21875 -15.765625 C 13.519531 -16.347656 12.769531 -16.78125 11.96875 -17.0625 C 11.175781 -17.34375 10.363281 -17.484375 9.53125 -17.484375 C 8.914062 -17.484375 8.375 -17.40625 7.90625 -17.25 C 7.445312 -17.101562 7.085938 -16.878906 6.828125 -16.578125 C 6.578125 -16.285156 6.453125 -15.914062 6.453125 -15.46875 C 6.453125 -15.039062 6.570312 -14.675781 6.8125 -14.375 C 7.0625 -14.082031 7.492188 -13.800781 8.109375 -13.53125 C 8.722656 -13.269531 9.570312 -12.96875 10.65625 -12.625 C 11.945312 -12.226562 13.054688 -11.753906 13.984375 -11.203125 C 14.910156 -10.660156 15.613281 -9.972656 16.09375 -9.140625 C 16.582031 -8.316406 16.828125 -7.269531 16.828125 -6 Z M 16.828125 -6" transform="translate(124.012 303.05)"/></g></g></g><g fill="#A4C2C2"><g><g><path d="M 11.296875 -16.828125 L 11.296875 0 L 6.4375 0 L 6.4375 -16.828125 L 0.671875 -16.828125 L 0.671875 -20.546875 L 17.296875 -20.546875 L 16.796875 -16.828125 Z M 11.296875 -16.828125" transform="translate(141.794 303.05)"/></g></g></g><g fill="#A4C2C2"><g><g><path d="M 16.640625 -14.296875 C 16.640625 -13.316406 16.457031 -12.460938 16.09375 -11.734375 C 15.726562 -11.003906 15.234375 -10.382812 14.609375 -9.875 C 13.984375 -9.375 13.285156 -8.972656 12.515625 -8.671875 L 17.90625 0 L 12.40625 0 L 7.953125 -7.859375 L 6.578125 -7.859375 L 6.578125 0 L 1.71875 0 L 1.71875 -20.546875 L 8.1875 -20.546875 C 10.976562 -20.546875 13.082031 -20.035156 14.5 -19.015625 C 15.925781 -17.992188 16.640625 -16.421875 16.640625 -14.296875 Z M 11.640625 -14.296875 C 11.640625 -15.285156 11.347656 -16.003906 10.765625 -16.453125 C 10.191406 -16.898438 9.335938 -17.125 8.203125 -17.125 L 6.578125 -17.125 L 6.578125 -11.1875 L 8.390625 -11.1875 C 9.441406 -11.1875 10.242188 -11.429688 10.796875 -11.921875 C 11.359375 -12.421875 11.640625 -13.210938 11.640625 -14.296875 Z M 11.640625 -14.296875" transform="translate(159.576 303.05)"/></g></g></g><g fill="#A4C2C2"><g><g><path d="M 11.859375 -4.4375 L 5.84375 -4.4375 L 4.75 0 L -0.328125 0 L 5.953125 -20.546875 L 11.859375 -20.546875 L 18.140625 0 L 12.9375 0 Z M 6.609375 -7.953125 L 11.0625 -7.953125 L 8.828125 -17.046875 Z M 6.609375 -7.953125" transform="translate(177.358 303.05)"/></g></g></g><g fill="#A4C2C2"><g><g><path d="M 10.609375 -21.0625 C 12.078125 -21.0625 13.328125 -20.863281 14.359375 -20.46875 C 15.398438 -20.082031 16.347656 -19.535156 17.203125 -18.828125 L 14.828125 -15.953125 C 14.253906 -16.410156 13.628906 -16.773438 12.953125 -17.046875 C 12.273438 -17.316406 11.535156 -17.453125 10.734375 -17.453125 C 9.867188 -17.453125 9.082031 -17.207031 8.375 -16.71875 C 7.664062 -16.226562 7.097656 -15.457031 6.671875 -14.40625 C 6.242188 -13.351562 6.03125 -11.988281 6.03125 -10.3125 C 6.03125 -8.664062 6.234375 -7.320312 6.640625 -6.28125 C 7.054688 -5.238281 7.625 -4.472656 8.34375 -3.984375 C 9.0625 -3.492188 9.882812 -3.25 10.8125 -3.25 C 11.84375 -3.25 12.695312 -3.441406 13.375 -3.828125 C 14.0625 -4.210938 14.691406 -4.628906 15.265625 -5.078125 L 17.46875 -2.265625 C 16.695312 -1.503906 15.75 -0.851562 14.625 -0.3125 C 13.5 0.226562 12.140625 0.5 10.546875 0.5 C 8.691406 0.5 7.046875 0.0859375 5.609375 -0.734375 C 4.171875 -1.554688 3.039062 -2.769531 2.21875 -4.375 C 1.40625 -5.976562 1 -7.957031 1 -10.3125 C 1 -12.601562 1.421875 -14.550781 2.265625 -16.15625 C 3.117188 -17.757812 4.269531 -18.976562 5.71875 -19.8125 C 7.175781 -20.644531 8.804688 -21.0625 10.609375 -21.0625 Z M 10.609375 -21.0625" transform="translate(195.14 303.05)"/></g></g></g><g fill="#A4C2C2"><g><g><path d="M 11.296875 -16.828125 L 11.296875 0 L 6.4375 0 L 6.4375 -16.828125 L 0.671875 -16.828125 L 0.671875 -20.546875 L 17.296875 -20.546875 L 16.796875 -16.828125 Z M 11.296875 -16.828125" transform="translate(212.922 303.05)"/></g></g></g><g fill="#A4C2C2"><g><g><path d="M 10.34375 0 L 4.9375 -16.53125 C 5 -16.082031 5.070312 -15.539062 5.15625 -14.90625 C 5.25 -14.28125 5.332031 -13.582031 5.40625 -12.8125 C 5.488281 -12.050781 5.550781 -11.238281 5.59375 -10.375 C 5.644531 -9.519531 5.671875 -8.644531 5.671875 -7.75 L 5.671875 0 L 1.546875 0 L 1.546875 -20.546875 L 7.609375 -20.546875 L 12.84375 -4.109375 C 12.738281 -4.722656 12.628906 -5.460938 12.515625 -6.328125 C 12.398438 -7.191406 12.300781 -8.15625 12.21875 -9.21875 C 12.144531 -10.289062 12.109375 -11.441406 12.109375 -12.671875 L 12.109375 -20.546875 L 16.25 -20.546875 L 16.25 0 Z M 10.34375 0" transform="translate(248.486 303.05)"/></g></g></g><g fill="#A4C2C2"><g><g><path d="M 8.078125 -17.078125 L 8.078125 -11.640625 L 15.28125 -11.640625 L 15.28125 -8.15625 L 8.078125 -8.15625 L 8.078125 0 L 3.203125 0 L 3.203125 -20.546875 L 16.703125 -20.546875 L 16.203125 -17.078125 Z M 8.078125 -17.078125" transform="translate(266.268 303.05)"/></g></g></g><g fill="#A4C2C2"><g><g><path d="M 11.296875 -16.828125 L 11.296875 0 L 6.4375 0 L 6.4375 -16.828125 L 0.671875 -16.828125 L 0.671875 -20.546875 L 17.296875 -20.546875 L 16.796875 -16.828125 Z M 11.296875 -16.828125" transform="translate(284.05 303.05)"/></g></g></g></svg>